<svg width="29" height="29" viewBox="0 0 29 29" fill="none" xmlns="http://www.w3.org/2000/svg">
<path d="M17.5831 6.59314C13.9419 6.59314 6.64816 3.64139 6.64816 0H6.59424C6.59424 2.91439 7.75195 5.70942 9.8127 7.77024C11.8734 9.83107 14.6684 10.9889 17.5828 10.989C19.3314 10.989 21.0085 11.6836 22.245 12.9201C23.4816 14.1566 24.1762 15.8336 24.1762 17.5823C24.1766 19.3309 23.4823 21.0082 22.246 22.2449C21.0097 23.4817 19.3328 24.1766 17.5842 24.177C15.8354 24.1773 14.1582 23.483 12.9215 22.2467C11.6847 21.0104 10.9897 19.3335 10.9894 17.5849C10.9894 16.1418 10.7051 14.7128 10.1528 13.3796C9.6005 12.0463 8.79103 10.8349 7.77056 9.81451C6.75009 8.79412 5.53865 7.98471 4.20537 7.4325C2.8721 6.8803 1.4431 6.59611 0 6.59616V6.64965C3.6407 6.64965 6.59247 13.9402 6.59383 17.5821H6.59314C6.59313 19.7556 7.23758 21.8802 8.44502 23.6874C9.65248 25.4945 11.3687 26.903 13.3766 27.7347C15.3846 28.5666 17.5941 28.7843 19.7258 28.3603C21.8574 27.9364 23.8155 26.8898 25.3525 25.3531C26.8893 23.8163 27.936 21.8584 28.3602 19.7266C28.7843 17.595 28.5667 15.3856 27.7352 13.3775C26.9036 11.3695 25.4952 9.65317 23.6882 8.44556C21.881 7.23795 19.7564 6.59331 17.5831 6.59314Z" fill="url(#paint0_linear_441_2351)"/>
<defs>
<linearGradient id="paint0_linear_441_2351" x1="22.7714" y1="24.7143" x2="6.17143" y2="1.91428" gradientUnits="userSpaceOnUse">
<stop offset="0.295" stop-color="#E73959"/>
<stop offset="0.384" stop-color="#E73D58"/>
<stop offset="0.477" stop-color="#E74955"/>
<stop offset="0.571" stop-color="#E95E51"/>
<stop offset="0.666" stop-color="#EA7B4B"/>
<stop offset="0.761" stop-color="#EDA044"/>
<stop offset="0.857" stop-color="#EFCE3B"/>
<stop offset="0.868" stop-color="#F0D43A"/>
</linearGradient>
</defs>
</svg>
