<svg width="200" height="29" viewBox="0 0 200 29" fill="none" xmlns="http://www.w3.org/2000/svg">
<path d="M17.5831 6.59314C13.9419 6.59314 6.64816 3.64139 6.64816 0H6.59424C6.59424 2.91439 7.75195 5.70942 9.8127 7.77024C11.8734 9.83107 14.6684 10.9889 17.5828 10.989C19.3314 10.989 21.0085 11.6836 22.245 12.9201C23.4816 14.1566 24.1762 15.8336 24.1762 17.5823C24.1766 19.3309 23.4823 21.0082 22.246 22.2449C21.0097 23.4817 19.3328 24.1766 17.5842 24.177C15.8354 24.1773 14.1582 23.483 12.9215 22.2467C11.6847 21.0104 10.9897 19.3335 10.9894 17.5849C10.9894 16.1418 10.7051 14.7128 10.1528 13.3796C9.6005 12.0463 8.79103 10.8349 7.77056 9.81451C6.75009 8.79412 5.53865 7.98471 4.20537 7.4325C2.8721 6.8803 1.4431 6.59611 0 6.59616V6.64965C3.6407 6.64965 6.59247 13.9402 6.59383 17.5821H6.59314C6.59313 19.7556 7.23758 21.8802 8.44502 23.6874C9.65248 25.4945 11.3687 26.903 13.3766 27.7347C15.3846 28.5666 17.5941 28.7843 19.7258 28.3603C21.8574 27.9364 23.8155 26.8898 25.3525 25.3531C26.8893 23.8163 27.936 21.8584 28.3602 19.7266C28.7843 17.595 28.5667 15.3856 27.7352 13.3775C26.9036 11.3695 25.4952 9.65317 23.6882 8.44556C21.881 7.23795 19.7564 6.59331 17.5831 6.59314Z" fill="url(#paint0_linear_441_2350)"/>
<path d="M43.0405 10.4297H47.6506L50.4282 18.8247L52.8049 10.4297H57.0714L52.6617 24.5731H48.3379L45.2453 15.4382L42.2101 24.5731H37.8003L33.3333 10.4297H37.8576L40.2343 18.7962L43.0405 10.4297Z" fill="#07121D"/>
<path d="M65.4023 21.0159C66.2995 21.0159 67.0536 20.7124 67.6644 20.1053C68.2944 19.4982 68.6094 18.6255 68.6094 17.4872C68.6094 16.3489 68.2944 15.4857 67.6644 14.8976C67.0536 14.2905 66.2995 13.9869 65.4023 13.9869C64.5242 13.9869 63.7701 14.2905 63.1402 14.8976C62.5102 15.5046 62.1952 16.3679 62.1952 17.4872C62.1952 18.6065 62.5102 19.4792 63.1402 20.1053C63.7701 20.7124 64.5242 21.0159 65.4023 21.0159ZM65.4023 10.0028C67.5595 10.0028 69.3539 10.7048 70.7856 12.1087C72.2364 13.5126 72.9619 15.3054 72.9619 17.4872C72.9619 19.6689 72.2364 21.4713 70.7856 22.8941C69.3539 24.298 67.5595 25 65.4023 25C63.2643 25 61.4698 24.2886 60.019 22.8657C58.5682 21.4428 57.8428 19.65 57.8428 17.4872C57.8428 15.3244 58.5682 13.5411 60.019 12.1372C61.4698 10.7143 63.2643 10.0028 65.4023 10.0028Z" fill="#07121D"/>
<path d="M90.0809 10.4297L84.5258 16.3773L90.1954 24.5731H84.8694L81.5191 19.5931L80.116 21.1013V24.5731H75.7636V3.96983H80.116V15.1821L84.4399 10.4297H90.0809Z" fill="#07121D"/>
<path d="M111.563 24.5731L109.731 22.6096C108.184 24.1842 106.409 24.9715 104.405 24.9715C102.496 24.9715 100.969 24.4214 99.8231 23.321C98.6968 22.2017 98.1337 20.9021 98.1337 19.4223C98.1337 18.265 98.4105 17.2785 98.9641 16.4627C99.5368 15.628 100.415 14.7837 101.598 13.93L101.312 13.617C99.8995 12.0802 99.1932 10.6384 99.1932 9.29141C99.1932 7.65984 99.7659 6.36027 100.911 5.39271C102.076 4.42516 103.422 3.94138 104.949 3.94138C106.629 3.94138 108.013 4.42516 109.101 5.39271C110.208 6.36027 110.762 7.60292 110.762 9.12066C110.762 10.8471 109.807 12.4028 107.898 13.7877L107.24 14.2715L109.96 17.1172L115.372 11.6249V16.918L112.508 19.7923L117.061 24.5731H111.563ZM104.519 21.2721C105.455 21.2721 106.352 20.8262 107.211 19.9345L104.061 16.5766L103.918 16.6904C102.868 17.4493 102.343 18.284 102.343 19.1946C102.343 19.7448 102.543 20.2286 102.944 20.646C103.364 21.0634 103.889 21.2721 104.519 21.2721ZM103.231 9.14912C103.231 9.73724 103.574 10.3918 104.262 11.1127L104.748 11.6249L105.55 11.0558C106.333 10.4866 106.724 9.84159 106.724 9.12066C106.724 8.64637 106.552 8.24796 106.209 7.92544C105.865 7.58395 105.445 7.4132 104.949 7.4132C104.471 7.4132 104.061 7.56498 103.717 7.86853C103.393 8.1531 103.231 8.57997 103.231 9.14912Z" fill="#07121D"/>
<path d="M132.971 10.4297H137.581L140.359 18.8247L142.735 10.4297H147.002L142.592 24.5731H138.268L135.176 15.4382L132.141 24.5731H127.731L123.264 10.4297H127.788L130.165 18.7962L132.971 10.4297Z" fill="#07121D"/>
<path d="M148.337 20.6744C148.337 19.4792 148.728 18.5212 149.511 17.8002C150.293 17.0603 151.305 16.5955 152.546 16.4058L155.896 15.8936C156.583 15.7987 156.927 15.4762 156.927 14.926C156.927 14.4897 156.736 14.1292 156.354 13.8446C155.992 13.5411 155.486 13.3893 154.837 13.3893C154.111 13.3893 153.529 13.598 153.09 14.0154C152.67 14.4138 152.441 14.8976 152.403 15.4667L148.623 14.6983C148.718 13.5221 149.301 12.4502 150.37 11.4826C151.458 10.4961 152.956 10.0028 154.865 10.0028C157.023 10.0028 158.607 10.5151 159.619 11.5396C160.65 12.564 161.165 13.8731 161.165 15.4667V22.3819C161.165 23.2736 161.222 24.004 161.337 24.5731H157.414C157.318 24.1937 157.271 23.6625 157.271 22.9795C156.45 24.3075 155.114 24.9715 153.262 24.9715C151.754 24.9715 150.551 24.5542 149.654 23.7194C148.776 22.8657 148.337 21.8507 148.337 20.6744ZM154.321 21.8412C155.066 21.8412 155.686 21.623 156.183 21.1867C156.679 20.7503 156.927 20.0294 156.927 19.0239V18.3978L154.235 18.8247C153.166 18.9954 152.632 19.5172 152.632 20.3899C152.632 20.7883 152.765 21.1298 153.033 21.4143C153.319 21.6989 153.749 21.8412 154.321 21.8412Z" fill="#07121D"/>
<path d="M179.145 10.4297L173.59 16.3773L179.259 24.5731H173.933L170.583 19.5931L169.18 21.1013V24.5731H164.827V3.96983H169.18V15.1821L173.504 10.4297H179.145Z" fill="#07121D"/>
<path d="M185.678 24.5731H181.326V10.4297H185.678V24.5731ZM181.698 7.89698C181.202 7.40372 180.954 6.80611 180.954 6.10415C180.954 5.4022 181.202 4.80459 181.698 4.31133C182.194 3.81806 182.786 3.57143 183.473 3.57143C184.18 3.57143 184.781 3.81806 185.277 4.31133C185.793 4.80459 186.05 5.4022 186.05 6.10415C186.05 6.80611 185.793 7.40372 185.277 7.89698C184.781 8.39025 184.18 8.63688 183.473 8.63688C182.786 8.63688 182.194 8.39025 181.698 7.89698Z" fill="#07121D"/>
<path d="M188.317 20.5606L192.011 19.9061C192.049 20.4373 192.25 20.8926 192.612 21.2721C192.994 21.6325 193.538 21.8127 194.244 21.8127C194.779 21.8127 195.189 21.6989 195.476 21.4713C195.762 21.2246 195.905 20.9306 195.905 20.5891C195.905 20.0199 195.438 19.631 194.502 19.4223L192.87 19.0524C191.419 18.7488 190.35 18.2176 189.663 17.4587C188.976 16.6809 188.632 15.7608 188.632 14.6983C188.632 13.3893 189.147 12.2795 190.178 11.3688C191.228 10.4582 192.536 10.0028 194.101 10.0028C195.953 10.0028 197.337 10.4487 198.253 11.3404C199.189 12.2131 199.704 13.1711 199.8 14.2146L196.192 14.8691C196.134 14.3569 195.934 13.9395 195.59 13.617C195.266 13.2944 194.789 13.1332 194.159 13.1332C193.739 13.1332 193.376 13.247 193.07 13.4747C192.765 13.7023 192.612 13.9964 192.612 14.3569C192.612 14.926 192.985 15.277 193.729 15.4098L195.619 15.7797C197.051 16.0643 198.139 16.605 198.883 17.4018C199.628 18.1986 200 19.1377 200 20.2191C200 21.5282 199.504 22.657 198.511 23.6056C197.518 24.5352 196.125 25 194.33 25C193.28 25 192.345 24.8482 191.524 24.5447C190.722 24.2411 190.102 23.8522 189.663 23.3779C189.243 22.8847 188.918 22.4009 188.689 21.9266C188.479 21.4523 188.355 20.997 188.317 20.5606Z" fill="#07121D"/>
<defs>
<linearGradient id="paint0_linear_441_2350" x1="22.7714" y1="24.7143" x2="6.17143" y2="1.91428" gradientUnits="userSpaceOnUse">
<stop offset="0.295" stop-color="#E73959"/>
<stop offset="0.384" stop-color="#E73D58"/>
<stop offset="0.477" stop-color="#E74955"/>
<stop offset="0.571" stop-color="#E95E51"/>
<stop offset="0.666" stop-color="#EA7B4B"/>
<stop offset="0.761" stop-color="#EDA044"/>
<stop offset="0.857" stop-color="#EFCE3B"/>
<stop offset="0.868" stop-color="#F0D43A"/>
</linearGradient>
</defs>
</svg>
